<?xml version="1.0" standalone="no"?><!DOCTYPE svg PUBLIC "-//W3C//DTD SVG 1.1//EN" "http://www.w3.org/Graphics/SVG/1.1/DTD/svg11.dtd"><svg t="1594288531741" class="icon" viewBox="0 0 1024 1024" version="1.1" xmlns="http://www.w3.org/2000/svg" p-id="4453" xmlns:xlink="http://www.w3.org/1999/xlink" width="200" height="200"><defs><style type="text/css"></style></defs><path d="M698.148571 347.574857l198.948572-198.948571 6.290286 208.822857a43.958857 43.958857 0 0 0 41.691428 41.691428 37.522286 37.522286 0 0 0 39.058286-39.131428L974.921143 53.833143a43.446857 43.446857 0 0 0-41.472-41.472L627.2 3.145143a37.522286 37.522286 0 0 0-38.985143 39.058286 42.422857 42.422857 0 0 0 12.8 28.818285 43.52 43.52 0 0 0 28.818286 12.8l208.822857 6.290286-198.948571 198.948571c-157.037714-129.024-383.268571-127.049143-521.508572 11.264-147.602286 147.602286-140.214857 395.483429 16.603429 552.228572 156.818286 156.891429 404.699429 164.278857 552.301714 16.676571 137.801143-138.532571 140.141714-364.982857 11.044571-521.654857z m-508.635428 449.609143c-124.342857-124.342857-130.267429-321.316571-13.165714-438.418286 115.126857-115.126857 306.834286-111.250286 431.542857 6.582857 1.682286 2.706286 3.657143 5.12 5.997714 7.460572 2.413714 2.340571 4.754286 4.388571 7.387429 5.997714 118.125714 124.928 121.782857 316.416 6.656 431.542857-117.101714 117.101714-313.782857 111.396571-438.418286-13.165714z" fill="#d81e06" p-id="4454"></path></svg>