<?xml version="1.0" standalone="no"?><!DOCTYPE svg PUBLIC "-//W3C//DTD SVG 1.1//EN" "http://www.w3.org/Graphics/SVG/1.1/DTD/svg11.dtd"><svg t="1594288507745" class="icon" viewBox="0 0 1024 1024" version="1.1" xmlns="http://www.w3.org/2000/svg" p-id="4096" xmlns:xlink="http://www.w3.org/1999/xlink" width="200" height="200"><defs><style type="text/css"></style></defs><path d="M511.998179 4.270218C236.804641 4.270218 13.716798 227.086004 13.716798 501.948803 13.716798 776.805514 236.804641 999.6213 511.998179 999.6213 787.195364 999.6213 1010.28321 776.805514 1010.28321 501.948803 1010.28321 227.086004 787.195364 4.270218 511.998179 4.270218L511.998179 4.270218ZM780.780691 374.702384 443.744488 711.322707C437.096243 717.962849 425.563698 717.208327 417.978739 709.632609L395.388087 687.069516C395.388087 687.064645 395.383221 687.064645 395.383221 687.059774L244.378652 536.244224C236.799776 528.669724 236.799776 516.395506 244.378652 508.821006L285.560057 467.689832C293.143801 460.115331 305.433019 460.115331 313.016763 467.689832L431.708307 586.236624 712.142582 306.147992C718.790828 299.50785 730.323373 300.262372 737.903467 307.83809L779.088522 348.968074C786.673481 356.538922 787.428936 368.062243 780.780691 374.702384L780.780691 374.702384Z" fill="#71c1b8" p-id="4097"></path></svg>