<?xml version="1.0" standalone="no"?><!DOCTYPE svg PUBLIC "-//W3C//DTD SVG 1.1//EN" "http://www.w3.org/Graphics/SVG/1.1/DTD/svg11.dtd"><svg t="1594288540270" class="icon" viewBox="0 0 1024 1024" version="1.1" xmlns="http://www.w3.org/2000/svg" p-id="4572" xmlns:xlink="http://www.w3.org/1999/xlink" width="200" height="200"><defs><style type="text/css"></style></defs><path d="M483.98293333 47.85066667c-250.8992 0-453.94986667 176.63253333-453.94986666 394.51626666 0 133.6832 77.584 252.54933333 194.784 325.14986667v122.1664c0 16.50026667 11.54986667 26.4 24.76586666 26.4 4.9504 0 9.9168-1.63306667 13.2-3.30026667l123.80053334-82.53333333c31.38346667 6.60053333 62.7328 8.26666667 95.74933333 8.26666667 250.90133333 0 453.93386667-176.63253333 453.93386667-394.51626667 1.6704-219.5168-201.3632-396.14933333-452.28373334-396.14933333z m0 724.63573333c-28.06613333 0-56.13333333-3.30026667-84.1824-8.26666667l-13.21706666-3.30026666c-8.25066667-1.632-16.50026667 0-24.76693334 4.96746666l-11.5328 8.23253334-59.43466666 39.63413333V749.38666667c0-11.56693333-6.59946667-23.13386667-16.4992-28.0672l-16.51626667-9.89866667C155.48373333 650.31893333 94.41706667 549.65333333 94.41706667 444.00213333c0-181.56693333 173.33333333-328.46613333 387.91573333-328.46613333 214.60053333 0 387.9008 146.8992 387.9008 328.46613333 1.66933333 179.9168-173.29706667 328.4832-386.25066667 328.4832zM226.4672 453.89973333c0 30.10026667 24.38293333 54.4832 54.4832 54.4832 30.0832 0 54.46613333-24.38293333 54.46613333-54.4832 0-30.05013333-24.384-54.45013333-54.46613333-54.45013333-30.10133333 0-54.48426667 24.4-54.48426667 54.45013333z m206.34986667 0c0 30.10026667 24.38293333 54.4832 54.46613333 54.4832s54.4832-24.38293333 54.4832-54.4832c0-30.05013333-24.4-54.45013333-54.4832-54.45013333s-54.46613333 24.4-54.46613333 54.45013333z m199.71626666 0c0 30.10026667 24.4 54.4832 54.4672 54.4832 30.0992 0 54.4992-24.38293333 54.4992-54.4832 0-30.05013333-24.4-54.45013333-54.4992-54.45013333-30.0672 0-54.4672 24.4-54.4672 54.45013333z m312.66986667 85.28746667c-0.9728-1.2288-1.9968-2.4064-3.00373333-3.6352-7.09973333 26.96533333-17.23733333 52.9408-30.0032 77.60213333 0.52906667 1.19466667 1.19466667 2.33813333 1.70666666 3.5328 8.63573333 19.8656 13.32906667 41.33546667 13.32906667 63.72693334 0 59.37493333-34.304 115.93386667-91.8016 150.23786666l-9.2672 5.56373334c-5.56373333 2.7648-9.30133333 9.2672-9.30133333 15.7696v36.16426666l-33.36533334-22.272-6.5024-4.62506666c-4.62506667-2.7648-9.2672-3.70346667-13.89226666-2.7648l-7.40693334 1.82613333c-15.80373333 2.83306667-31.57333333 4.62506667-47.29173333 4.62506667-37.80266667 0-73.40373333-8.36266667-104.46506667-22.9376-30.83946667 7.20213333-62.83946667 11.74186667-95.7952 13.29493333 51.62666667 44.4928 122.6752 72.00426667 201.1648 72.00426667 20.80426667 0 40.53333333-1.04106667 60.2624-5.1712l77.9264 51.93386666c2.06506667 1.04106667 5.1712 2.06506667 8.26026667 2.06506667 8.32853333 0 15.59893333-6.22933333 15.59893333-16.60586667v-76.9024c73.76213333-45.70453333 122.60693333-120.50773333 122.60693334-204.62933333 0-51.4048-17.9712-99.1744-48.75946667-138.8032z" fill="#1296DB" p-id="4573"></path></svg>