<?xml version="1.0" standalone="no"?><!DOCTYPE svg PUBLIC "-//W3C//DTD SVG 1.1//EN" "http://www.w3.org/Graphics/SVG/1.1/DTD/svg11.dtd"><svg t="1594288525209" class="icon" viewBox="0 0 1024 1024" version="1.1" xmlns="http://www.w3.org/2000/svg" p-id="4334" xmlns:xlink="http://www.w3.org/1999/xlink" width="200" height="200"><defs><style type="text/css"></style></defs><path d="M502.075077 620.307692C347.687385 620.307692 221.971692 495.458462 221.971692 342.173538 221.971692 188.731077 347.608615 63.960615 502.075077 63.960615c154.387692 0 280.103385 124.770462 280.103385 278.212923 0 153.363692-125.636923 278.055385-280.103385 278.055385m344.536615-278.055385C846.611692 153.442462 692.066462 0 502.075077 0S157.538462 153.442462 157.538462 342.173538C157.538462 520.034462 294.912 666.387692 469.858462 682.692923v64.590769H331.382154a32.137846 32.137846 0 0 0-32.295385 31.980308c0 17.644308 14.493538 31.980308 32.295385 31.980308h138.476308v180.224c0 17.644308 14.414769 31.980308 32.216615 31.980307 17.801846 0 32.295385-14.336 32.295385-31.980307v-180.224h138.476307c17.723077 0 32.216615-14.336 32.216616-31.980308a32.137846 32.137846 0 0 0-32.295385-32.059077H534.370462v-64.590769c174.867692-16.147692 312.32-162.579692 312.32-340.440616" fill="#fe83c8" p-id="4335"></path></svg>